<?xml version="1.0" encoding="UTF-8"?><svg id="_レイヤー_1" xmlns="http://www.w3.org/2000/svg" viewBox="0 0 169.32 135.05"><defs><style>.cls-1{fill:#9bd9dc;stroke-width:0px;}</style></defs><path class="cls-1" d="m84.12,48.56c3.25,0,5.9,2.63,5.93,5.92-.08,1.72.63,3.4,1.93,4.54,1.04.91,2.37,1.4,3.73,1.4.39,0,.79-.04,1.18-.13.4-.09.82-.13,1.24-.13,3.27,0,5.93,2.66,5.93,5.93,0,1.92-.93,3.73-2.5,4.84-2.25,1.6-3.02,4.58-1.83,7.07.38.8.58,1.67.58,2.57,0,3.27-2.66,5.93-5.93,5.93-2.01,0-3.87-1.01-4.96-2.7-1.04-1.61-2.83-2.58-4.75-2.58h0c-1.92,0-3.7.97-4.75,2.57-1.1,1.69-2.97,2.7-4.98,2.7-3.27,0-5.93-2.66-5.93-5.93,0-.9.19-1.76.58-2.55,1.2-2.49.43-5.49-1.83-7.09-1.57-1.11-2.5-2.92-2.5-4.84,0-3.27,2.66-5.93,5.93-5.93.22,0,.43.01.64.04.23.03.46.04.69.04,1.38,0,2.71-.5,3.76-1.42,1.22-1.08,1.91-2.62,1.91-4.25v-.08c0-3.27,2.66-5.93,5.94-5.93m0-5.67c-6.41,0-11.61,5.2-11.61,11.6v.08c-.44-.05-.88-.08-1.33-.08-6.4,0-11.6,5.2-11.6,11.6,0,3.91,1.93,7.36,4.9,9.46-.73,1.52-1.14,3.22-1.14,5.02,0,6.4,5.2,11.6,11.6,11.6,4.08,0,7.66-2.1,9.73-5.28,2.07,3.18,5.65,5.28,9.72,5.28,6.41,0,11.6-5.2,11.6-11.6,0-1.8-.41-3.5-1.13-5.02,2.96-2.1,4.89-5.55,4.89-9.46,0-6.4-5.19-11.6-11.6-11.6-.83,0-1.64.09-2.43.25,0-.09,0-.17,0-.25,0-6.4-5.2-11.6-11.6-11.6h0Z"/></svg>